<svg width="69" height="225" viewBox="0 0 69 225" fill="none" xmlns="http://www.w3.org/2000/svg">
<path fill-rule="evenodd" clip-rule="evenodd" d="M34.5 225C53.5538 225 69 209.554 69 190.5C69 171.446 53.5538 156 34.5 156C15.4462 156 0 171.446 0 190.5C0 209.554 15.4462 225 34.5 225ZM22.3203 207H45.7109V201.539H31.0391L38.7969 193.359C40.9219 191.031 42.4219 188.992 43.2969 187.242C44.1719 185.492 44.6094 183.773 44.6094 182.086C44.6094 179.008 43.6328 176.625 41.6797 174.938C39.7422 173.25 37.0156 172.406 33.5 172.406C31.2031 172.406 29.1484 172.898 27.3359 173.883C25.5234 174.852 24.1172 176.195 23.1172 177.914C22.1328 179.633 21.6406 181.531 21.6406 183.609H28.4375C28.4375 181.891 28.875 180.508 29.75 179.461C30.6406 178.398 31.8516 177.867 33.3828 177.867C34.8047 177.867 35.8984 178.305 36.6641 179.18C37.4297 180.039 37.8125 181.227 37.8125 182.742C37.8125 183.852 37.4453 185.023 36.7109 186.258C35.9922 187.492 34.875 188.938 33.3594 190.594L22.3203 202.359V207Z" fill="url(#paint0_linear)"/>
<line x1="35" y1="4.37114e-08" x2="35" y2="156" stroke="url(#paint1_linear)" stroke-width="2"/>
<defs>
<linearGradient id="paint0_linear" x1="6" y1="166" x2="67" y2="210.5" gradientUnits="userSpaceOnUse">
<stop stop-color="#84E557"/>
<stop offset="1" stop-color="#57E5B2"/>
</linearGradient>
<linearGradient id="paint1_linear" x1="34.0001" y1="156" x2="34" y2="-4" gradientUnits="userSpaceOnUse">
<stop stop-color="#8AF15A"/>
<stop offset="1" stop-color="#8AF15A" stop-opacity="0"/>
</linearGradient>
</defs>
</svg>
