<svg width="69" height="225" viewBox="0 0 69 225" fill="none" xmlns="http://www.w3.org/2000/svg">
<path fill-rule="evenodd" clip-rule="evenodd" d="M34.5 225C53.5538 225 69 209.554 69 190.5C69 171.446 53.5538 156 34.5 156C15.4462 156 0 171.446 0 190.5C0 209.554 15.4462 225 34.5 225ZM32.8203 186.938H29.2109V192.234H32.7969C36.5469 192.234 38.4219 193.938 38.4219 197.344C38.4219 198.75 37.9609 199.883 37.0391 200.742C36.1328 201.586 34.875 202.008 33.2656 202.008C31.8594 202.008 30.6719 201.602 29.7031 200.789C28.75 199.977 28.2734 198.93 28.2734 197.648H21.5C21.5 200.602 22.5781 202.977 24.7344 204.773C26.9062 206.57 29.6953 207.469 33.1016 207.469C36.7422 207.469 39.6641 206.555 41.8672 204.727C44.0859 202.898 45.1953 200.469 45.1953 197.438C45.1953 195.562 44.7188 193.938 43.7656 192.562C42.8281 191.188 41.3984 190.156 39.4766 189.469C41.0234 188.766 42.2734 187.758 43.2266 186.445C44.1797 185.133 44.6562 183.695 44.6562 182.133C44.6562 179.102 43.6328 176.727 41.5859 175.008C39.5391 173.273 36.7109 172.406 33.1016 172.406C31.0234 172.406 29.1172 172.805 27.3828 173.602C25.6641 174.398 24.3203 175.508 23.3516 176.93C22.3984 178.336 21.9219 179.93 21.9219 181.711H28.6953C28.6953 180.57 29.1328 179.648 30.0078 178.945C30.8828 178.227 31.9688 177.867 33.2656 177.867C34.7031 177.867 35.8281 178.25 36.6406 179.016C37.4688 179.781 37.8828 180.852 37.8828 182.227C37.8828 183.648 37.4688 184.789 36.6406 185.648C35.8125 186.508 34.5391 186.938 32.8203 186.938Z" fill="url(#paint0_linear)"/>
<line x1="34" y1="4.37114e-08" x2="34" y2="156" stroke="url(#paint1_linear)" stroke-width="2"/>
<defs>
<linearGradient id="paint0_linear" x1="8" y1="163" x2="60.5" y2="213" gradientUnits="userSpaceOnUse">
<stop stop-color="#2B7489"/>
<stop offset="1" stop-color="#2E72B0"/>
</linearGradient>
<linearGradient id="paint1_linear" x1="33.0001" y1="156" x2="33" y2="-4" gradientUnits="userSpaceOnUse">
<stop stop-color="#2B7489"/>
<stop offset="1" stop-color="#2B7489" stop-opacity="0"/>
</linearGradient>
</defs>
</svg>
